# xmcd
#
# Track frame offsets:
#	150
#	12974
#	26308
#	39506
#	50767
#	61739
#	71610
#	84386
#	97421
#	107656
#	117764
#	131210
#	140889
#	158273
#	169894
#	180422
#	188595
#	202696
#	213551
#	229170
#	240447
#	253309
#	264404
#	276500
#	287566
#
# Disc length: 4018 seconds
#
# Revision: 2
# Processed by: cddbd v1.5.2PL0 Copyright (c) Steve Scherf et al.
# Submitted via: audiograbber 1.83.01
#
DISCID=650fb019
DTITLE=Various Artist - The Sky Is Crying - The Fire Records Story  [CD2)
DYEAR=1900
DGENRE=Oldies
TTITLE0=Bobby Marchan  - There's Something On Your Mind - Part 2
TTITLE1=Buster Brown - Fannie Mae  
TTITLE2=Don Gardner and Dee Dee Ford  - I Need Your Loving  
TTITLE3=Earl Lewis and The Channels - My Heart Is Sad  
TTITLE4=Mary Ann Fisher  - Put On My Shoes  
TTITLE5=Elmore James  - Bobby's Rock  
TTITLE6=Johnny Acey - Why  
TTITLE7=Arthur 'Big Boy' Crudup  - Katie Mae  
TTITLE8=Chuck Bradford  - You're Going To Miss Me (When I'm Gone)  
TTITLE9=Tarheel Slim and Little Ann  - Lock Me In Your Heart  
TTITLE10=Wild Jimmy Spruill  - Hard Grind  
TTITLE11=Vinney and Kenny  - Who Is The Girl  
TTITLE12=Buster Brown - Sincerely  
TTITLE13=Gay Poppers  - I've Got It 
TTITLE14=Bobby Marchan - This Is The Life 
TTITLE15=Paul Perryman  - Keep A' Calling  
TTITLE16=Rainbows  - Evening  
TTITLE17=Linda Martell and The Anglos  - A Little Tear (Was Falling From My Eyes)
TTITLE17=
TTITLE18=Dr. Horse  - Jack, That Cat Was Clean  
TTITLE19=Elmore James - Rollin' And Tumblin' 
TTITLE20=Tellers  - Tears Fell From My Eyes  
TTITLE21=Arthur 'Big Boy' Crudup  - Rock Me Mama  
TTITLE22=Tarheel Slim and Little Ann  - It's Too Late  
TTITLE23=Johnny Chef - Can't Stop Moving  
TTITLE24=Mighty Joe Young - Empty Arms  
EXTD=
EXTT0=
EXTT1=
EXTT2=
EXTT3=
EXTT4=
EXTT5=
EXTT6=
EXTT7=
EXTT8=
EXTT9=
EXTT10=
EXTT11=
EXTT12=
EXTT13=
EXTT14=
EXTT15=
EXTT16=
EXTT17=
EXTT18=
EXTT19=
EXTT20=
EXTT21=
EXTT22=
EXTT23=
EXTT24=
PLAYORDER=
